<svg width="101" height="101" xmlns="http://www.w3.org/2000/svg" xmlns:xlink="http://www.w3.org/1999/xlink" xmlns:svgjs="http://svgjs.com/svgjs" viewBox="910 3618 101 101"><svg width="101" height="101" xmlns="http://www.w3.org/2000/svg" xmlns:xlink="http://www.w3.org/1999/xlink" xmlns:svgjs="http://svgjs.com/svgjs" opacity=".2" x="910" y="3618"><svg xmlns="http://www.w3.org/2000/svg" xmlns:xlink="http://www.w3.org/1999/xlink" width="101" height="101" viewBox="2 2 100 100"><path paint-order="stroke fill markers" fill-rule="evenodd" d="M52 2c27.614 0 50 22.386 50 50s-22.386 50-50 50S2 79.614 2 52 24.386 2 52 2z"/></svg></svg><svg width="71" height="71" xmlns="http://www.w3.org/2000/svg" xmlns:xlink="http://www.w3.org/1999/xlink" xmlns:svgjs="http://svgjs.com/svgjs" viewBox="0 0 70.999 71" fill="#fff" x="925" y="3633"><svg xmlns="http://www.w3.org/2000/svg" width="71" height="71" viewBox="4.998 4.997 70.001 70.001"><path paint-order="stroke fill markers" fill-rule="evenodd" d="M34.934 56.82a2.06 2.06 0 0 1-2.06-2.06V25.235a2.06 2.06 0 0 1 3.379-1.582l17.714 14.762a2.059 2.059 0 0 1 0 3.165L36.253 56.343a2.06 2.06 0 0 1-1.32.477zm2.06-27.187v20.73l12.437-10.366-12.437-10.364zm2.943 45.365a34.807 34.807 0 0 1-17.106-4.47 2.06 2.06 0 1 1 2.02-3.59c12.019 6.765 27.231 4.673 36.994-5.093 12.047-12.047 12.047-31.648 0-43.695-12.047-12.049-31.649-12.048-43.695 0-12.046 12.047-12.046 31.648 0 43.695a2.06 2.06 0 0 1-2.913 2.914c-13.653-13.654-13.653-35.869 0-49.523 13.654-13.652 35.867-13.653 49.522 0 13.653 13.654 13.653 35.869 0 49.523C58.033 71.484 49.026 75 39.937 75z"/></svg></svg></svg>